<svg xmlns="http://www.w3.org/2000/svg" viewBox="0 0 841.9 595.3">
  <g fill="#61DAFB">
    <path d="M666.3 296.5c0 45.6-18.6 86.5-49.2 112.9 11.2 45.9 20.2 95.2 25.9 146.2h-60.8c-4.4-43.6-11.5-85.2-21.1-124.5-42.8 22.6-94.4 35.5-148.7 35.5-54.4 0-106-12.9-148.8-35.5-9.6 39.2-16.7 80.9-21.1 124.5H199c5.7-51 14.7-100.3 25.9-146.2-30.6-26.4-49.2-67.3-49.2-112.9 0-45.6 18.6-86.5 49.2-112.9-11.2-45.9-20.2-95.2-25.9-146.2h60.8c4.4 43.6 11.5 85.2 21.1 124.5 42.8-22.6 94.4-35.5 148.8-35.5 54.4 0 106 12.9 148.8 35.5 9.6-39.2 16.7-80.9 21.1-124.5h60.8c-5.7 51-14.7 100.3-25.9 146.2 30.6 26.4 49.2 67.3 49.2 112.9zm-192.4 0c0-44.3-35.8-80.4-80-80.4s-80 36.1-80 80.4 35.8 80.4 80 80.4 80-36.1 80-80.4z"/>
    <circle cx="375.5" cy="296.5" r="45.7"/>
    <path d="M375.5 17.7c55.2 0 106.4 11.2 148.8 31.2-11.3 37.4-27.7 78.7-48.3 122.8-11.2-6.2-23.2-11.8-35.6-16.6 17.3-38 32.3-73.5 44.1-105.3-34.5-14.7-74.3-23-116.5-23-42.2 0-82 8.3-116.5 23 11.8 31.8 26.8 67.3 44.1 105.3-12.4 4.8-24.4 10.4-35.6 16.6-20.6-44.1-37-85.4-48.3-122.8 42.3-20 93.6-31.2 148.8-31.2z"/>
  </g>
</svg>
